<?xml version="1.0" encoding="UTF-8"?>
<svg xmlns="http://www.w3.org/2000/svg" xmlns:xlink="http://www.w3.org/1999/xlink" width="128pt" height="128pt" viewBox="0 0 128 128" version="1.1">
<g id="surface1">
<path style=" stroke:none;fill-rule:nonzero;fill:rgb(0%,0%,0%);fill-opacity:1;" d="M 96 69.332031 L 96 106.667969 L 21.332031 106.667969 L 21.332031 32 L 48.105469 32 C 48.375 28.214844 49.28125 24.640625 50.667969 21.332031 L 21.332031 21.332031 C 15.464844 21.332031 10.667969 26.132812 10.667969 32 L 10.667969 106.667969 C 10.667969 112.535156 15.464844 117.332031 21.332031 117.332031 L 96 117.332031 C 101.867188 117.332031 106.667969 112.535156 106.667969 106.667969 L 106.667969 80 Z M 88 96 L 29.332031 96 L 44 77.171875 L 54.453125 89.761719 L 69.121094 70.878906 Z M 102.933594 47.414062 C 105.28125 43.679688 106.667969 39.359375 106.667969 34.667969 C 106.667969 21.386719 95.945312 10.667969 82.667969 10.667969 C 69.386719 10.667969 58.667969 21.386719 58.667969 34.667969 C 58.667969 47.945312 69.386719 58.667969 82.613281 58.667969 C 87.308594 58.667969 91.679688 57.28125 95.359375 54.933594 L 112 71.574219 L 119.574219 64 Z M 82.667969 48 C 75.308594 48 69.332031 42.027344 69.332031 34.667969 C 69.332031 27.308594 75.308594 21.332031 82.667969 21.332031 C 90.027344 21.332031 96 27.308594 96 34.667969 C 96 42.027344 90.027344 48 82.667969 48 Z M 82.667969 48 "/>
</g>
</svg>
